<mxfile host="65bd71144e">
    <diagram id="kUcDNTqG35tnqXhUjUfU" name="单目模式流程图">
        <mxGraphModel dx="2023" dy="802" grid="0" gridSize="10" guides="1" tooltips="1" connect="1" arrows="1" fold="1" page="0" pageScale="1" pageWidth="827" pageHeight="1169" background="none" math="0" shadow="0">
            <root>
                <mxCell id="0"/>
                <mxCell id="1" parent="0"/>
                <mxCell id="2" value="&lt;b&gt;&lt;font style=&quot;font-size: 14px&quot;&gt;mono_euroc.cc作为入口函数&lt;/font&gt;&lt;/b&gt;" style="text;html=1;strokeColor=none;fillColor=none;align=center;verticalAlign=middle;whiteSpace=wrap;rounded=0;" parent="1" vertex="1">
                    <mxGeometry x="-300" y="-150" width="90" height="70" as="geometry"/>
                </mxCell>
                <mxCell id="13" style="edgeStyle=none;html=1;exitX=0.5;exitY=1;exitDx=0;exitDy=0;entryX=0.5;entryY=0;entryDx=0;entryDy=0;fontSize=14;" parent="1" source="3" target="8" edge="1">
                    <mxGeometry relative="1" as="geometry"/>
                </mxCell>
                <mxCell id="3" value="开始" style="rounded=1;whiteSpace=wrap;html=1;fontSize=14;" parent="1" vertex="1">
                    <mxGeometry x="-311.25" y="-60" width="115" height="40" as="geometry"/>
                </mxCell>
                <mxCell id="11" value="" style="edgeStyle=none;html=1;fontSize=14;" parent="1" source="8" target="10" edge="1">
                    <mxGeometry relative="1" as="geometry"/>
                </mxCell>
                <mxCell id="8" value="使用LoadImages函数加载图像路径和时间戳" style="rounded=0;whiteSpace=wrap;html=1;fontSize=14;" parent="1" vertex="1">
                    <mxGeometry x="-313.75" y="40" width="120" height="60" as="geometry"/>
                </mxCell>
                <mxCell id="18" style="edgeStyle=none;html=1;exitX=0.5;exitY=1;exitDx=0;exitDy=0;entryX=0.5;entryY=0;entryDx=0;entryDy=0;fontSize=14;" parent="1" source="10" target="17" edge="1">
                    <mxGeometry relative="1" as="geometry"/>
                </mxCell>
                <mxCell id="ht9LEjCgL1vxGVpyMyi7-39" style="edgeStyle=none;html=1;entryX=0.998;entryY=0.407;entryDx=0;entryDy=0;entryPerimeter=0;fontSize=9;dashed=1;" parent="1" source="10" edge="1">
                    <mxGeometry relative="1" as="geometry">
                        <mxPoint x="-680.6200000000001" y="185.1199999999999" as="targetPoint"/>
                    </mxGeometry>
                </mxCell>
                <mxCell id="10" value="&lt;div style=&quot;background-color: rgb(30 , 30 , 30) ; font-family: &amp;#34;menlo&amp;#34; , &amp;#34;monaco&amp;#34; , &amp;#34;courier new&amp;#34; , monospace ; font-size: 12px ; line-height: 18px ; color: rgb(212 , 212 , 212)&quot;&gt;&lt;span style=&quot;color: #4ec9b0&quot;&gt;ORB_SLAM2&lt;/span&gt;::&lt;span style=&quot;color: #4ec9b0&quot;&gt;System&lt;/span&gt; &lt;span style=&quot;color: #9cdcfe&quot;&gt;SLAM&lt;/span&gt;&lt;/div&gt;&lt;div style=&quot;background-color: rgb(30 , 30 , 30) ; font-family: &amp;#34;menlo&amp;#34; , &amp;#34;monaco&amp;#34; , &amp;#34;courier new&amp;#34; , monospace ; font-size: 12px ; line-height: 18px ; color: rgb(212 , 212 , 212)&quot;&gt;创建SLAM系统&lt;/div&gt;" style="whiteSpace=wrap;html=1;fontSize=14;rounded=0;" parent="1" vertex="1">
                    <mxGeometry x="-340" y="160" width="172.5" height="50" as="geometry"/>
                </mxCell>
                <mxCell id="21" style="edgeStyle=none;html=1;exitX=0;exitY=0.5;exitDx=0;exitDy=0;fontSize=14;entryX=0;entryY=0.5;entryDx=0;entryDy=0;" parent="1" source="14" target="17" edge="1">
                    <mxGeometry relative="1" as="geometry">
                        <mxPoint x="-450" y="447" as="targetPoint"/>
                        <Array as="points">
                            <mxPoint x="-440" y="448"/>
                            <mxPoint x="-440" y="315"/>
                        </Array>
                    </mxGeometry>
                </mxCell>
                <mxCell id="14" value="&lt;div style=&quot;color: rgb(212 , 212 , 212) ; background-color: rgb(30 , 30 , 30) ; font-family: &amp;#34;menlo&amp;#34; , &amp;#34;monaco&amp;#34; , &amp;#34;courier new&amp;#34; , monospace ; font-size: 12px ; line-height: 18px&quot;&gt;&lt;span style=&quot;color: #9cdcfe&quot;&gt;SLAM&lt;/span&gt;.&lt;span style=&quot;color: #dcdcaa&quot;&gt;TrackMonocular&lt;/span&gt;(im,&lt;span style=&quot;color: #9cdcfe&quot;&gt;tframe&lt;/span&gt;);&lt;/div&gt;&lt;div style=&quot;color: rgb(212 , 212 , 212) ; background-color: rgb(30 , 30 , 30) ; font-family: &amp;#34;menlo&amp;#34; , &amp;#34;monaco&amp;#34; , &amp;#34;courier new&amp;#34; , monospace ; font-size: 12px ; line-height: 18px&quot;&gt;进行Track，并记录每一帧的处理时间&lt;/div&gt;" style="whiteSpace=wrap;html=1;fontSize=14;rounded=0;" parent="1" vertex="1">
                    <mxGeometry x="-370" y="420" width="233.13" height="55" as="geometry"/>
                </mxCell>
                <mxCell id="19" style="edgeStyle=none;html=1;exitX=0.5;exitY=1;exitDx=0;exitDy=0;fontSize=14;" parent="1" source="17" target="14" edge="1">
                    <mxGeometry relative="1" as="geometry"/>
                </mxCell>
                <mxCell id="25" style="edgeStyle=none;html=1;exitX=1;exitY=0.5;exitDx=0;exitDy=0;entryX=0.5;entryY=0;entryDx=0;entryDy=0;fontSize=14;" parent="1" source="17" target="22" edge="1">
                    <mxGeometry relative="1" as="geometry">
                        <Array as="points">
                            <mxPoint x="-30" y="315"/>
                            <mxPoint x="-30" y="510"/>
                            <mxPoint x="-130" y="510"/>
                            <mxPoint x="-253" y="510"/>
                        </Array>
                    </mxGeometry>
                </mxCell>
                <mxCell id="17" value="数据集图片遍历" style="rhombus;whiteSpace=wrap;html=1;fontSize=14;" parent="1" vertex="1">
                    <mxGeometry x="-341.75" y="280" width="176" height="70" as="geometry"/>
                </mxCell>
                <mxCell id="28" value="" style="edgeStyle=none;html=1;fontSize=14;" parent="1" source="22" target="27" edge="1">
                    <mxGeometry relative="1" as="geometry"/>
                </mxCell>
                <mxCell id="22" value="&lt;div style=&quot;color: rgb(212 , 212 , 212) ; background-color: rgb(30 , 30 , 30) ; font-family: &amp;#34;menlo&amp;#34; , &amp;#34;monaco&amp;#34; , &amp;#34;courier new&amp;#34; , monospace ; font-size: 12px ; line-height: 18px&quot;&gt;&lt;span style=&quot;color: #9cdcfe&quot;&gt;SLAM&lt;/span&gt;.&lt;span style=&quot;color: #dcdcaa&quot;&gt;Shutdown&lt;/span&gt;();&lt;/div&gt;&lt;div style=&quot;color: rgb(212 , 212 , 212) ; background-color: rgb(30 , 30 , 30) ; font-family: &amp;#34;menlo&amp;#34; , &amp;#34;monaco&amp;#34; , &amp;#34;courier new&amp;#34; , monospace ; font-size: 12px ; line-height: 18px&quot;&gt;终止SLAM系统&lt;/div&gt;" style="whiteSpace=wrap;html=1;fontSize=14;rounded=0;" parent="1" vertex="1">
                    <mxGeometry x="-320.15000000000003" y="552.5" width="133.44" height="67.5" as="geometry"/>
                </mxCell>
                <mxCell id="24" value="未结束" style="text;html=1;align=center;verticalAlign=middle;resizable=0;points=[];autosize=1;strokeColor=none;fillColor=none;fontSize=14;" parent="1" vertex="1">
                    <mxGeometry x="-313.75" y="370" width="60" height="20" as="geometry"/>
                </mxCell>
                <mxCell id="26" value="结束" style="text;html=1;align=center;verticalAlign=middle;resizable=0;points=[];autosize=1;strokeColor=none;fillColor=none;fontSize=14;" parent="1" vertex="1">
                    <mxGeometry x="-160" y="290" width="40" height="20" as="geometry"/>
                </mxCell>
                <mxCell id="30" value="" style="edgeStyle=none;html=1;fontSize=14;" parent="1" source="27" target="29" edge="1">
                    <mxGeometry relative="1" as="geometry"/>
                </mxCell>
                <mxCell id="27" value="计算耗时信息" style="whiteSpace=wrap;html=1;fontSize=14;rounded=0;" parent="1" vertex="1">
                    <mxGeometry x="-313.43000000000006" y="703.75" width="120" height="60" as="geometry"/>
                </mxCell>
                <mxCell id="36" value="" style="edgeStyle=none;html=1;fontSize=14;" parent="1" source="29" target="34" edge="1">
                    <mxGeometry relative="1" as="geometry"/>
                </mxCell>
                <mxCell id="29" value="&lt;div style=&quot;color: rgb(212 , 212 , 212) ; background-color: rgb(30 , 30 , 30) ; font-family: &amp;#34;menlo&amp;#34; , &amp;#34;monaco&amp;#34; , &amp;#34;courier new&amp;#34; , monospace ; font-size: 12px ; line-height: 18px&quot;&gt;&lt;span style=&quot;color: #9cdcfe&quot;&gt;SLAM&lt;/span&gt;.&lt;span style=&quot;color: #dcdcaa&quot;&gt;SaveKeyFrameTrajectoryTUM&lt;/span&gt;&lt;/div&gt;&lt;div style=&quot;color: rgb(212 , 212 , 212) ; background-color: rgb(30 , 30 , 30) ; font-family: &amp;#34;menlo&amp;#34; , &amp;#34;monaco&amp;#34; , &amp;#34;courier new&amp;#34; , monospace ; font-size: 12px ; line-height: 18px&quot;&gt;&lt;span style=&quot;color: #dcdcaa&quot;&gt;保存相机位姿轨迹&lt;/span&gt;&lt;/div&gt;" style="whiteSpace=wrap;html=1;fontSize=14;rounded=0;" parent="1" vertex="1">
                    <mxGeometry x="-371.72" y="843.75" width="233.43" height="66.25" as="geometry"/>
                </mxCell>
                <mxCell id="34" value="结束" style="rounded=1;whiteSpace=wrap;html=1;fontSize=14;" parent="1" vertex="1">
                    <mxGeometry x="-312.5" y="1000" width="115" height="40" as="geometry"/>
                </mxCell>
                <mxCell id="SP2-FX5IbyNXaG80h9-N-38" value="" style="edgeStyle=none;html=1;fontSize=10;fontColor=#141414;strokeColor=#FFFFFF;" edge="1" parent="1" source="SP2-FX5IbyNXaG80h9-N-36" target="SP2-FX5IbyNXaG80h9-N-37">
                    <mxGeometry relative="1" as="geometry"/>
                </mxCell>
                <mxCell id="SP2-FX5IbyNXaG80h9-N-36" value="System构造函数" style="rounded=0;whiteSpace=wrap;html=1;fontSize=10;" vertex="1" parent="1">
                    <mxGeometry x="-809" y="155" width="120" height="60" as="geometry"/>
                </mxCell>
                <mxCell id="SP2-FX5IbyNXaG80h9-N-40" value="" style="edgeStyle=none;html=1;fontSize=10;fontColor=#141414;strokeColor=#FFFFFF;" edge="1" parent="1" source="SP2-FX5IbyNXaG80h9-N-37" target="SP2-FX5IbyNXaG80h9-N-39">
                    <mxGeometry relative="1" as="geometry"/>
                </mxCell>
                <mxCell id="SP2-FX5IbyNXaG80h9-N-37" value="构建词袋模型指针&lt;br&gt;加载离线字典" style="whiteSpace=wrap;html=1;fontSize=10;rounded=0;" vertex="1" parent="1">
                    <mxGeometry x="-809" y="295" width="120" height="60" as="geometry"/>
                </mxCell>
                <mxCell id="SP2-FX5IbyNXaG80h9-N-42" value="" style="edgeStyle=none;html=1;fontSize=10;fontColor=#141414;strokeColor=#FFFFFF;" edge="1" parent="1" source="SP2-FX5IbyNXaG80h9-N-39" target="SP2-FX5IbyNXaG80h9-N-41">
                    <mxGeometry relative="1" as="geometry"/>
                </mxCell>
                <mxCell id="SP2-FX5IbyNXaG80h9-N-39" value="利用词袋模型&lt;br&gt;构建关键帧数据库" style="whiteSpace=wrap;html=1;fontSize=10;rounded=0;" vertex="1" parent="1">
                    <mxGeometry x="-809" y="435" width="120" height="60" as="geometry"/>
                </mxCell>
                <mxCell id="SP2-FX5IbyNXaG80h9-N-44" value="" style="edgeStyle=none;html=1;fontSize=10;fontColor=#141414;strokeColor=#FFFFFF;" edge="1" parent="1" source="SP2-FX5IbyNXaG80h9-N-41" target="SP2-FX5IbyNXaG80h9-N-43">
                    <mxGeometry relative="1" as="geometry"/>
                </mxCell>
                <mxCell id="SP2-FX5IbyNXaG80h9-N-41" value="构建Map" style="whiteSpace=wrap;html=1;fontSize=10;rounded=0;" vertex="1" parent="1">
                    <mxGeometry x="-809" y="575" width="120" height="60" as="geometry"/>
                </mxCell>
                <mxCell id="SP2-FX5IbyNXaG80h9-N-46" value="" style="edgeStyle=none;html=1;fontSize=10;fontColor=#141414;strokeColor=#FFFFFF;" edge="1" parent="1" source="SP2-FX5IbyNXaG80h9-N-43" target="SP2-FX5IbyNXaG80h9-N-45">
                    <mxGeometry relative="1" as="geometry"/>
                </mxCell>
                <mxCell id="SP2-FX5IbyNXaG80h9-N-43" value="构建tracking线程&lt;br&gt;（主线程）" style="whiteSpace=wrap;html=1;fontSize=10;rounded=0;" vertex="1" parent="1">
                    <mxGeometry x="-809" y="715" width="120" height="60" as="geometry"/>
                </mxCell>
                <mxCell id="SP2-FX5IbyNXaG80h9-N-48" value="" style="edgeStyle=none;html=1;fontSize=10;fontColor=#141414;strokeColor=#FFFFFF;" edge="1" parent="1" source="SP2-FX5IbyNXaG80h9-N-45" target="SP2-FX5IbyNXaG80h9-N-47">
                    <mxGeometry relative="1" as="geometry"/>
                </mxCell>
                <mxCell id="SP2-FX5IbyNXaG80h9-N-45" value="构建Local Mapping线程" style="whiteSpace=wrap;html=1;fontSize=10;rounded=0;" vertex="1" parent="1">
                    <mxGeometry x="-809" y="855" width="120" height="60" as="geometry"/>
                </mxCell>
                <mxCell id="SP2-FX5IbyNXaG80h9-N-54" value="" style="edgeStyle=none;html=1;fontSize=10;fontColor=#141414;strokeColor=#FFFFFF;" edge="1" parent="1" source="SP2-FX5IbyNXaG80h9-N-47" target="SP2-FX5IbyNXaG80h9-N-53">
                    <mxGeometry relative="1" as="geometry"/>
                </mxCell>
                <mxCell id="SP2-FX5IbyNXaG80h9-N-47" value="构建 Loop Closing 线程" style="whiteSpace=wrap;html=1;fontSize=10;rounded=0;" vertex="1" parent="1">
                    <mxGeometry x="-809" y="995" width="120" height="60" as="geometry"/>
                </mxCell>
                <mxCell id="SP2-FX5IbyNXaG80h9-N-49" value="设置不同线程之间的指针" style="whiteSpace=wrap;html=1;fontSize=10;rounded=0;" vertex="1" parent="1">
                    <mxGeometry x="-809" y="1275" width="120" height="60" as="geometry"/>
                </mxCell>
                <mxCell id="SP2-FX5IbyNXaG80h9-N-55" value="" style="edgeStyle=none;html=1;fontSize=10;fontColor=#141414;strokeColor=#FFFFFF;" edge="1" parent="1" source="SP2-FX5IbyNXaG80h9-N-53" target="SP2-FX5IbyNXaG80h9-N-49">
                    <mxGeometry relative="1" as="geometry"/>
                </mxCell>
                <mxCell id="SP2-FX5IbyNXaG80h9-N-53" value="初始化用户显示界面" style="whiteSpace=wrap;html=1;fontSize=10;rounded=0;" vertex="1" parent="1">
                    <mxGeometry x="-809" y="1135" width="120" height="60" as="geometry"/>
                </mxCell>
            </root>
        </mxGraphModel>
    </diagram>
    <diagram id="LayIn5aBG-K_s3KPf1Pv" name="Umax示意图">
        <mxGraphModel dx="823" dy="402" grid="1" gridSize="10" guides="1" tooltips="1" connect="1" arrows="1" fold="1" page="1" pageScale="1" pageWidth="827" pageHeight="1169" background="#ffffff" math="0" shadow="0">
            <root>
                <mxCell id="x9rZ4jO0hmvWXVLRqYGY-0"/>
                <mxCell id="x9rZ4jO0hmvWXVLRqYGY-1" parent="x9rZ4jO0hmvWXVLRqYGY-0"/>
                <mxCell id="x9rZ4jO0hmvWXVLRqYGY-2" value="" style="ellipse;whiteSpace=wrap;html=1;aspect=fixed;fillColor=none;strokeColor=#FF0000;" vertex="1" parent="x9rZ4jO0hmvWXVLRqYGY-1">
                    <mxGeometry x="200" y="400" width="310" height="310" as="geometry"/>
                </mxCell>
                <mxCell id="x9rZ4jO0hmvWXVLRqYGY-4" value="" style="endArrow=none;html=1;exitX=0;exitY=0.5;exitDx=0;exitDy=0;entryX=1;entryY=0.5;entryDx=0;entryDy=0;strokeColor=#141414;" edge="1" parent="x9rZ4jO0hmvWXVLRqYGY-1" source="x9rZ4jO0hmvWXVLRqYGY-2" target="x9rZ4jO0hmvWXVLRqYGY-2">
                    <mxGeometry width="50" height="50" relative="1" as="geometry">
                        <mxPoint x="300" y="580" as="sourcePoint"/>
                        <mxPoint x="350" y="530" as="targetPoint"/>
                    </mxGeometry>
                </mxCell>
                <mxCell id="x9rZ4jO0hmvWXVLRqYGY-5" value="" style="endArrow=none;html=1;strokeColor=#141414;entryX=0.5;entryY=0;entryDx=0;entryDy=0;exitX=0.5;exitY=1;exitDx=0;exitDy=0;" edge="1" parent="x9rZ4jO0hmvWXVLRqYGY-1" source="x9rZ4jO0hmvWXVLRqYGY-2" target="x9rZ4jO0hmvWXVLRqYGY-2">
                    <mxGeometry width="50" height="50" relative="1" as="geometry">
                        <mxPoint x="290" y="550" as="sourcePoint"/>
                        <mxPoint x="340" y="500" as="targetPoint"/>
                    </mxGeometry>
                </mxCell>
                <mxCell id="x9rZ4jO0hmvWXVLRqYGY-6" value="&lt;font color=&quot;#141414&quot;&gt;U&lt;/font&gt;" style="text;html=1;strokeColor=none;fillColor=none;align=center;verticalAlign=middle;whiteSpace=wrap;rounded=0;" vertex="1" parent="x9rZ4jO0hmvWXVLRqYGY-1">
                    <mxGeometry x="470" y="550" width="60" height="30" as="geometry"/>
                </mxCell>
                <mxCell id="x9rZ4jO0hmvWXVLRqYGY-7" value="&lt;font color=&quot;#141414&quot;&gt;V&lt;/font&gt;" style="text;html=1;strokeColor=none;fillColor=none;align=center;verticalAlign=middle;whiteSpace=wrap;rounded=0;" vertex="1" parent="x9rZ4jO0hmvWXVLRqYGY-1">
                    <mxGeometry x="320" y="400" width="60" height="30" as="geometry"/>
                </mxCell>
                <mxCell id="x9rZ4jO0hmvWXVLRqYGY-8" value="" style="endArrow=none;html=1;fontColor=#141414;strokeColor=#00CC00;entryX=1;entryY=0;entryDx=0;entryDy=0;" edge="1" parent="x9rZ4jO0hmvWXVLRqYGY-1" target="x9rZ4jO0hmvWXVLRqYGY-2">
                    <mxGeometry width="50" height="50" relative="1" as="geometry">
                        <mxPoint x="355" y="555" as="sourcePoint"/>
                        <mxPoint x="460" y="450" as="targetPoint"/>
                    </mxGeometry>
                </mxCell>
                <mxCell id="x9rZ4jO0hmvWXVLRqYGY-10" value="" style="endArrow=none;dashed=1;html=1;fontColor=#141414;strokeColor=#00CC00;entryX=1;entryY=0;entryDx=0;entryDy=0;" edge="1" parent="x9rZ4jO0hmvWXVLRqYGY-1" target="x9rZ4jO0hmvWXVLRqYGY-2">
                    <mxGeometry width="50" height="50" relative="1" as="geometry">
                        <mxPoint x="355" y="445" as="sourcePoint"/>
                        <mxPoint x="400" y="490" as="targetPoint"/>
                    </mxGeometry>
                </mxCell>
                <mxCell id="x9rZ4jO0hmvWXVLRqYGY-11" value="" style="endArrow=none;dashed=1;html=1;fontColor=#141414;strokeColor=#0000CC;entryX=0.838;entryY=0.129;entryDx=0;entryDy=0;entryPerimeter=0;" edge="1" parent="x9rZ4jO0hmvWXVLRqYGY-1" target="x9rZ4jO0hmvWXVLRqYGY-2">
                    <mxGeometry width="50" height="50" relative="1" as="geometry">
                        <mxPoint x="355" y="440" as="sourcePoint"/>
                        <mxPoint x="420" y="460" as="targetPoint"/>
                    </mxGeometry>
                </mxCell>
                <mxCell id="x9rZ4jO0hmvWXVLRqYGY-12" value="&lt;font style=&quot;font-size: 6px&quot;&gt;Vmax &amp;amp; Vmin&lt;/font&gt;" style="text;html=1;strokeColor=none;fillColor=none;align=center;verticalAlign=middle;whiteSpace=wrap;rounded=0;fontColor=#141414;" vertex="1" parent="x9rZ4jO0hmvWXVLRqYGY-1">
                    <mxGeometry x="300" y="420" width="60" height="30" as="geometry"/>
                </mxCell>
                <mxCell id="x9rZ4jO0hmvWXVLRqYGY-13" value="&lt;div style=&quot;text-align: left ; font-size: 10px&quot;&gt;&lt;span&gt;&lt;font style=&quot;font-size: 10px&quot;&gt;Umax size = 16&lt;/font&gt;&lt;/span&gt;&lt;/div&gt;&lt;div style=&quot;text-align: left ; font-size: 10px&quot;&gt;&lt;span&gt;&lt;font style=&quot;font-size: 10px&quot;&gt;Umax[0] = 15&lt;/font&gt;&lt;/span&gt;&lt;/div&gt;&lt;div style=&quot;text-align: left ; font-size: 10px&quot;&gt;&lt;font style=&quot;font-size: 10px&quot;&gt;Umax[1] = 15&lt;span&gt;&lt;br&gt;&lt;/span&gt;&lt;/font&gt;&lt;/div&gt;&lt;div style=&quot;text-align: left ; font-size: 10px&quot;&gt;&lt;font style=&quot;font-size: 10px&quot;&gt;Umax[2] = 15&lt;br&gt;&lt;/font&gt;&lt;/div&gt;&lt;div style=&quot;text-align: left ; font-size: 10px&quot;&gt;&lt;font style=&quot;font-size: 10px&quot;&gt;Umax[3] = 15&lt;br&gt;&lt;/font&gt;&lt;/div&gt;&lt;div style=&quot;text-align: left ; font-size: 10px&quot;&gt;&lt;font style=&quot;font-size: 10px&quot;&gt;Umax[4] = 14&lt;br&gt;&lt;/font&gt;&lt;/div&gt;&lt;div style=&quot;text-align: left ; font-size: 10px&quot;&gt;&lt;font style=&quot;font-size: 10px&quot;&gt;Umax[5] = 14&lt;br&gt;&lt;/font&gt;&lt;/div&gt;&lt;div style=&quot;text-align: left ; font-size: 10px&quot;&gt;&lt;font style=&quot;font-size: 10px&quot;&gt;Umax[6] = 14&lt;br&gt;&lt;/font&gt;&lt;/div&gt;&lt;div style=&quot;text-align: left ; font-size: 10px&quot;&gt;&lt;font style=&quot;font-size: 10px&quot;&gt;Umax[7] = 13&lt;br&gt;&lt;/font&gt;&lt;/div&gt;&lt;div style=&quot;text-align: left ; font-size: 10px&quot;&gt;&lt;font style=&quot;font-size: 10px&quot;&gt;Umax[8] = 13&lt;br&gt;&lt;/font&gt;&lt;/div&gt;&lt;div style=&quot;text-align: left ; font-size: 10px&quot;&gt;&lt;font style=&quot;font-size: 10px&quot;&gt;Umax[9] = 12&amp;nbsp;&lt;br&gt;&lt;/font&gt;&lt;/div&gt;&lt;div style=&quot;text-align: left ; font-size: 10px&quot;&gt;&lt;font style=&quot;font-size: 10px&quot;&gt;Umax[10] =&amp;nbsp; 11&lt;br&gt;&lt;/font&gt;&lt;/div&gt;&lt;div style=&quot;text-align: left ; font-size: 10px&quot;&gt;&lt;font style=&quot;font-size: 10px&quot;&gt;Umax[11] =&amp;nbsp; 10&lt;br&gt;&lt;/font&gt;&lt;/div&gt;&lt;div style=&quot;text-align: left ; font-size: 10px&quot;&gt;&lt;font style=&quot;font-size: 10px&quot;&gt;Umax[12] = 9&lt;br&gt;&lt;/font&gt;&lt;/div&gt;&lt;div style=&quot;text-align: left ; font-size: 10px&quot;&gt;&lt;font style=&quot;font-size: 10px&quot;&gt;Umax[13] = 8&lt;br&gt;&lt;/font&gt;&lt;/div&gt;&lt;div style=&quot;text-align: left ; font-size: 10px&quot;&gt;&lt;font style=&quot;font-size: 10px&quot;&gt;Umax[14] = 6&lt;/font&gt;&lt;/div&gt;&lt;div style=&quot;text-align: left ; font-size: 10px&quot;&gt;&lt;font style=&quot;font-size: 10px&quot;&gt;Umax[15] = 3&lt;/font&gt;&lt;/div&gt;&lt;div style=&quot;text-align: left ; font-size: 10px&quot;&gt;&lt;font style=&quot;font-size: 10px&quot;&gt;&amp;nbsp;&lt;br&gt;&lt;/font&gt;&lt;/div&gt;&lt;div style=&quot;text-align: left ; font-size: 10px&quot;&gt;&lt;font style=&quot;font-size: 10px&quot;&gt;&lt;br&gt;&lt;/font&gt;&lt;/div&gt;&lt;div style=&quot;text-align: left ; font-size: 10px&quot;&gt;&lt;span&gt;&lt;br&gt;&lt;/span&gt;&lt;/div&gt;" style="text;html=1;strokeColor=none;fillColor=none;align=center;verticalAlign=middle;whiteSpace=wrap;rounded=0;fontSize=6;fontColor=#141414;" vertex="1" parent="x9rZ4jO0hmvWXVLRqYGY-1">
                    <mxGeometry x="580" y="440" width="140" height="160" as="geometry"/>
                </mxCell>
                <mxCell id="x9rZ4jO0hmvWXVLRqYGY-14" value="通过数格子，与算法实际输出一致" style="text;html=1;align=center;verticalAlign=middle;resizable=0;points=[];autosize=1;strokeColor=none;fillColor=none;fontSize=10;fontColor=#141414;" vertex="1" parent="x9rZ4jO0hmvWXVLRqYGY-1">
                    <mxGeometry x="540" y="630" width="170" height="20" as="geometry"/>
                </mxCell>
            </root>
        </mxGraphModel>
    </diagram>
</mxfile>